<svg xmlns="http://www.w3.org/2000/svg" width="950pt" height="417pt" viewBox="0 0 950 417" version="1.1">
<g id="#fff">
<path fill="#fff" opacity="1.00" d=" M 352.79 0.00 L 367.33 0.00 C 374.37 1.51 381.94 1.07 388.46 4.48 C 395.53 7.28 402.81 10.30 408.36 15.68 C 411.45 18.58 415.28 20.74 417.67 24.34 C 420.85 29.16 424.22 33.86 427.10 38.87 C 435.62 54.77 437.19 73.26 436.96 91.00 C 436.96 105.02 436.95 119.04 436.98 133.06 C 437.03 137.05 436.11 140.96 435.99 144.94 C 420.36 144.95 404.72 145.10 389.08 144.91 C 388.91 120.92 389.08 96.93 389.00 72.94 C 388.44 66.15 385.73 59.02 379.83 55.12 C 373.07 49.47 363.80 49.10 355.50 50.50 C 349.81 51.35 344.97 55.05 341.23 59.23 C 337.87 63.73 336.35 69.43 335.99 74.97 C 336.00 165.33 336.00 255.70 335.99 346.06 C 336.19 350.57 338.21 354.79 340.26 358.74 C 343.49 365.07 350.34 368.51 357.05 369.88 C 361.15 371.74 365.56 370.25 369.78 369.76 C 373.45 368.84 377.03 367.27 380.18 365.18 C 383.97 361.05 387.85 356.48 388.82 350.77 C 389.34 347.22 389.99 343.66 390.00 340.06 C 389.86 311.69 389.75 283.32 390.06 254.95 C 388.72 254.37 387.48 253.47 386.01 253.30 C 379.35 253.74 372.63 253.93 365.98 253.31 C 365.81 239.55 365.70 225.79 365.99 212.03 C 390.66 211.98 415.32 212.01 439.99 212.01 C 439.97 278.12 440.04 344.23 439.95 410.34 C 431.90 410.82 423.80 410.25 415.73 410.65 C 413.95 410.98 412.62 409.35 412.17 407.82 C 409.98 401.61 407.45 395.53 405.85 389.13 C 404.62 389.09 403.40 389.04 402.17 389.00 C 396.94 400.30 386.60 408.75 375.02 412.95 C 367.48 415.89 359.22 415.52 351.38 417.00 L 349.65 417.00 C 344.32 415.29 338.59 415.51 333.31 413.66 C 325.77 410.53 318.01 407.60 311.56 402.45 C 305.31 397.98 300.95 391.61 296.68 385.35 C 293.20 379.80 291.18 373.54 288.29 367.70 C 286.27 358.93 284.84 349.99 284.02 341.03 C 284.02 253.01 284.01 164.98 284.02 76.96 C 284.46 69.20 286.10 61.57 288.08 54.07 C 291.60 43.79 296.93 34.19 303.49 25.52 C 312.47 16.75 322.77 8.91 334.74 4.70 C 340.44 1.99 346.98 2.38 352.79 0.00 M 384.17 57.29 C 384.75 57.89 384.75 57.89 384.17 57.29 M 432.14 214.12 C 432.27 217.42 435.17 212.61 432.14 214.12 M 304.23 393.26 C 304.80 393.82 304.80 393.82 304.23 393.26 Z"/>
<path fill="#fff" opacity="1.00" d=" M 0.00 6.00 C 16.91 6.16 33.84 5.67 50.74 6.25 C 51.15 11.16 50.98 16.08 51.00 21.00 C 51.00 111.00 51.00 201.00 51.00 291.00 C 51.10 314.28 50.81 337.58 51.13 360.85 C 53.45 363.02 56.97 362.88 59.94 362.98 C 66.95 362.63 73.98 362.65 81.00 362.69 C 95.67 362.33 110.38 363.93 125.00 362.13 C 124.90 378.36 125.20 394.60 124.84 410.84 C 122.57 410.58 120.29 410.21 118.00 410.35 C 110.67 410.67 103.34 410.31 96.01 410.41 C 87.68 410.25 79.33 410.91 71.02 410.15 C 68.52 409.91 66.00 410.05 63.53 410.44 C 58.71 411.14 53.85 410.34 49.01 410.51 C 37.01 410.68 25.01 410.01 13.02 410.73 C 8.68 410.82 4.34 410.64 0.00 410.66 L 0.00 6.00 Z"/>
<path fill="#fff" opacity="1.00" d=" M 140.01 6.01 C 182.64 6.00 225.27 5.98 267.90 6.02 C 268.39 22.00 268.90 38.03 267.93 54.00 C 242.62 53.99 217.31 54.00 192.00 54.00 C 191.93 91.00 191.99 128.00 191.95 165.00 C 191.82 169.62 191.76 174.25 192.18 178.86 C 209.77 179.24 227.37 178.82 244.96 179.06 C 245.02 194.34 245.05 209.62 244.92 224.90 C 227.28 225.15 209.63 224.81 191.99 225.01 C 191.94 270.97 191.92 316.93 192.02 362.89 C 201.68 362.81 211.34 362.36 221.00 362.88 C 236.72 362.53 252.46 363.48 268.18 362.67 C 267.94 374.78 268.49 386.90 268.08 399.01 C 268.16 402.96 268.47 406.95 267.78 410.88 C 261.20 410.02 254.59 410.75 247.98 410.55 C 235.65 410.24 223.32 410.51 210.99 410.66 C 203.31 410.06 195.64 410.93 187.96 410.67 C 177.33 410.11 166.68 410.88 156.06 410.09 C 151.01 410.34 145.88 409.93 140.90 410.88 C 139.49 407.07 140.10 402.96 140.01 399.00 C 140.02 268.00 140.00 137.01 140.01 6.01 Z"/>
<path fill="#fff" opacity="1.00" d=" M 464.12 6.00 C 506.75 6.02 549.37 5.97 592.00 6.02 C 591.97 22.01 591.98 38.00 591.99 53.99 C 567.64 53.99 543.29 54.02 518.94 53.97 C 517.20 53.90 515.53 54.34 513.92 54.92 C 516.02 63.42 514.45 72.31 514.91 80.97 C 515.05 107.98 514.92 134.99 514.98 161.99 C 515.03 166.88 514.81 171.79 513.96 176.61 C 514.98 177.57 516.00 178.55 517.02 179.53 C 519.97 178.88 523.00 179.03 526.00 179.01 C 540.00 179.00 553.99 179.00 567.98 179.01 C 567.88 194.34 568.47 209.66 567.97 224.98 C 553.64 224.98 539.32 224.99 525.00 224.94 C 521.64 225.20 518.30 224.10 514.99 224.98 C 513.94 227.92 515.03 230.94 514.97 233.95 C 514.96 264.63 514.98 295.31 514.97 326.00 C 514.71 335.58 515.61 345.23 514.30 354.75 C 514.64 357.06 515.04 359.37 515.32 361.69 C 517.19 362.12 519.04 362.68 520.96 362.90 C 544.63 363.02 568.32 362.67 591.99 363.04 C 591.98 378.75 591.97 394.46 591.99 410.17 C 570.33 410.82 548.66 410.12 526.99 410.47 C 505.99 410.39 484.99 410.47 463.99 410.41 C 463.48 408.98 462.91 407.55 463.00 406.01 C 463.00 276.68 463.00 147.34 463.00 18.00 C 463.08 13.98 462.45 9.79 464.12 6.00 Z"/>
<path fill="#fff" opacity="1.00" d=" M 610.93 6.01 C 624.64 5.99 638.35 6.02 652.06 5.98 C 654.37 5.88 656.60 6.52 658.82 7.12 C 661.45 15.15 663.53 23.36 665.43 31.59 C 666.31 36.14 668.94 40.23 669.08 44.93 C 669.39 49.32 671.93 53.10 672.59 57.41 C 675.27 67.69 677.48 78.12 680.77 88.24 C 681.61 91.50 681.83 94.92 682.97 98.11 C 684.93 103.13 684.22 108.95 687.55 113.45 C 688.22 118.91 689.86 124.19 691.54 129.43 C 694.59 142.17 697.82 154.87 701.55 167.43 C 701.69 169.99 701.55 172.60 703.55 174.55 C 704.00 178.31 704.90 181.98 706.48 185.46 C 707.35 191.18 709.29 196.66 710.68 202.26 C 711.74 209.16 714.58 215.64 715.49 222.56 C 716.12 226.39 718.90 230.18 717.26 234.09 C 718.35 235.63 720.07 237.00 719.92 239.08 C 719.84 243.96 723.26 248.12 723.01 253.02 C 722.70 256.35 724.32 259.42 726.79 261.56 C 727.34 248.38 726.94 235.18 727.02 222.00 C 727.02 160.67 727.01 99.33 727.02 38.00 C 727.13 27.36 726.75 16.71 727.29 6.08 C 741.83 5.98 756.38 5.97 770.92 6.03 C 772.50 5.85 773.26 7.66 773.01 8.99 C 772.99 138.33 773.01 267.66 773.00 397.00 C 772.96 401.66 773.16 406.33 772.77 410.98 C 759.57 409.73 746.33 410.39 733.11 410.56 C 729.85 401.91 727.57 392.95 724.89 384.12 C 723.05 379.67 723.10 374.67 720.49 370.52 C 718.76 362.90 716.42 355.46 714.04 348.03 C 712.15 339.49 708.82 331.35 707.11 322.77 C 706.65 319.97 704.58 317.80 704.01 315.06 C 701.01 302.41 696.67 290.16 693.40 277.58 C 691.79 272.61 690.63 267.43 688.18 262.82 C 688.29 258.86 686.83 255.23 685.46 251.60 C 683.11 241.89 679.41 232.58 677.13 222.85 C 675.10 217.89 675.06 212.35 672.41 207.62 C 670.30 196.85 666.49 186.53 664.13 175.82 C 663.15 172.15 661.76 168.59 661.17 164.81 C 660.51 161.80 660.19 158.09 657.17 156.45 C 656.52 165.58 657.64 174.77 656.47 183.88 C 657.34 192.22 656.91 200.62 656.98 209.00 C 657.04 273.67 656.95 338.35 657.02 403.02 C 656.89 405.47 657.54 408.28 655.78 410.31 C 645.22 410.95 634.61 410.07 624.06 410.26 C 620.15 411.24 616.16 410.09 612.27 410.88 C 611.53 410.14 610.79 409.40 610.06 408.68 C 610.00 276.77 610.08 144.86 610.02 12.96 C 609.99 10.61 610.54 8.32 610.93 6.01 Z"/>
<path fill="#fff" opacity="1.00" d=" M 800.26 6.11 C 828.20 5.87 856.14 6.06 884.08 6.01 C 891.36 6.69 898.72 7.18 905.78 9.24 C 913.37 12.75 921.46 15.59 928.17 20.77 C 934.84 26.89 940.50 34.07 945.10 41.85 C 947.10 45.11 946.44 49.74 950.00 51.98 L 950.00 365.08 C 947.32 368.53 946.69 372.93 944.62 376.70 C 939.72 385.35 933.39 393.52 924.69 398.63 C 919.68 401.49 914.84 405.09 909.04 406.09 C 906.46 406.51 904.18 407.86 901.76 408.72 C 897.71 409.26 893.57 408.72 889.55 409.61 C 881.81 411.07 873.90 410.61 866.07 410.50 C 860.08 409.95 854.06 410.83 848.07 410.21 C 834.70 410.52 821.33 410.56 807.95 410.76 C 805.36 410.85 802.81 410.45 800.27 410.03 C 801.71 395.73 800.75 381.34 801.02 367.00 C 800.34 353.63 801.91 340.19 800.31 326.86 C 799.70 320.87 801.41 314.98 801.03 309.00 C 800.38 293.00 801.80 276.96 800.46 260.99 C 800.74 248.65 800.41 236.31 800.21 223.97 C 801.17 204.34 801.16 184.66 800.88 165.00 C 800.97 135.02 801.38 105.01 800.60 75.05 C 801.51 65.94 800.80 56.79 800.48 47.67 C 800.25 43.11 801.03 38.58 800.83 34.02 C 800.41 24.72 801.97 15.33 800.26 6.11 M 852.22 55.88 C 852.73 57.52 853.06 59.22 853.02 60.95 C 852.92 161.33 853.08 261.71 852.94 362.09 C 856.11 363.51 859.64 362.95 863.00 363.04 C 869.36 362.90 875.73 363.22 882.08 362.91 C 886.08 361.46 890.74 361.03 893.87 357.87 C 901.41 352.10 902.25 341.79 903.01 333.06 C 903.01 250.02 903.04 166.98 903.01 83.93 C 902.33 78.03 901.87 71.91 899.57 66.37 C 897.41 63.31 894.99 60.34 892.15 57.89 C 888.98 56.82 885.97 55.33 882.84 54.18 C 876.48 54.48 870.07 54.90 863.71 54.20 C 859.81 53.87 855.53 53.32 852.22 55.88 Z"/>
</g>
</svg>